<svg xmlns="http://www.w3.org/2000/svg" version="1.1" xmlns:xlink="http://www.w3.org/1999/xlink" xmlns:svgjs="http://svgjs.dev/svgjs" viewBox="0 0 800 800" opacity="0.49"><defs><linearGradient x1="50%" y1="0%" x2="50%" y2="100%" id="ccchaos-grad"><stop stop-color="hsl(265, 55%, 30%)" stop-opacity="1" offset="0%"></stop><stop stop-color="hsl(265, 55%, 60%)" stop-opacity="1" offset="100%"></stop></linearGradient></defs><g stroke-width="2" stroke="url(#ccchaos-grad)" fill="none" stroke-linecap="round"><path d="M84.81 78.56Q93.79 78.85 102.77 79.51 111.74 80.53 120.72 81.87 129.7 83.5 138.67 85.38 147.65 87.44 156.62 89.63 165.6 91.89 174.58 94.15 183.55 96.35 192.53 98.43 201.51 100.32 210.48 101.98 219.46 103.35 228.43 104.4 237.41 105.1 246.39 105.42 255.36 105.36 264.34 104.93 273.32 104.12 282.29 102.97 291.27 101.51 300.24 99.77 309.22 97.82 318.2 95.7 327.17 93.47 336.15 91.2 345.13 88.96 354.1 86.8 363.08 84.79 372.05 82.98 381.03 81.43 390.01 80.18 398.98 79.27 407.96 78.72 416.94 78.55 425.91 78.75 434.89 79.34 443.86 80.29 452.84 81.56 461.82 83.14 470.79 84.97 479.77 86.99 488.75 89.16 497.72 91.41 506.7 93.68 515.67 95.9 524.65 98.01 533.63 99.94 542.6 101.65 551.58 103.09 560.56 104.21 569.53 104.98 578.51 105.39 587.48 105.41 596.46 105.05 605.44 104.32 614.41 103.24 623.39 101.84 632.37 100.16 641.34 98.24 656.12 99.89 666.14 113.3 671.77 122.97 678.65 132.65 686.53 142.33 695.14 152.01 704.19 161.68 713.37 171.36 722.37 181.04 730.87 190.72 738.6 200.39 745.28 210.07 750.68 219.75 754.63 229.42 756.98 239.1 757.66 248.78 756.65 258.46 753.97 268.13 749.72 277.81 744.04 287.49 737.14 297.17 729.24 306.84 720.61 316.52 711.55 326.2 702.37 335.87 693.38 345.55 684.9 355.23 677.2 364.91 670.55 374.58 665.18 384.26 661.28 393.94 658.97 403.62 658.33 413.29 659.4 422.97 662.12 432.65 666.41 442.32 672.12 452 679.06 461.68 686.98 471.36 695.62 481.03 704.69 490.71 713.87 500.39 722.85 510.07 731.32 519.74 738.99 529.42 745.6 539.1 750.93 548.77 754.8 558.45 757.06 568.13 757.65 577.81 756.54 587.48 753.77 597.16 749.44 606.84 743.7 616.52 736.73 626.19 728.78 635.87 720.12 645.55 711.05 655.22 701.87 664.9 692.91 674.58 684.45 684.26 676.81 693.93 670.22 703.61 664.93 713.29 655.88 719.29 646.83 724.97 637.78 730.17 628.72 734.74 619.67 738.54 610.62 741.48 601.57 743.47 592.52 744.44 583.47 744.38 574.42 743.29 565.37 741.19 556.31 738.14 547.26 734.24 538.21 729.59 529.16 724.33 520.11 718.6 511.06 712.58 502.01 706.42 492.95 700.3 483.9 694.41 474.85 688.9 465.8 683.93 456.75 679.65 447.7 676.18 438.65 673.61 429.6 672.01 420.54 671.45 411.49 671.92 402.44 673.42 393.39 675.9 384.34 679.29 375.29 683.5 366.24 688.41 357.18 693.87 348.13 699.74 339.08 705.84 330.03 712.01 320.98 718.05 311.93 723.82 302.88 729.13 293.83 733.84 284.77 737.82 275.72 740.94 266.67 743.13 257.62 744.32 248.57 744.48 239.52 743.6 230.47 741.71 221.41 738.86 212.36 735.13 203.31 730.62 194.26 725.48 185.21 719.84 176.16 713.86 167.11 707.71 158.06 701.57 149 695.62 139.95 690.01 130.9 684.92 121.85 680.48 112.8 676.83 103.75 674.07 90.56 667.24 87.4 652.95 88.52 643.69 89.77 634.42 91.09 625.16 92.45 615.89 93.78 606.63 95.06 597.36 96.23 588.1 97.26 578.84 98.11 569.57 98.75 560.31 99.15 551.04 99.32 541.78 99.23 532.51 98.9 523.25 98.33 513.98 97.54 504.72 96.57 495.46 95.43 486.19 94.18 476.93 92.86 467.66 91.51 458.4 90.17 449.13 88.9 439.87 87.73 430.6 86.7 421.34 85.86 412.08 85.23 402.81 84.83 393.55 84.67 384.28 84.77 375.02 85.11 365.75 85.68 356.49 86.47 347.23 87.45 337.96 88.59 328.7 89.84 319.43 91.17 310.17 92.52 300.9 93.86 291.64 95.13 282.37 96.29 273.11 97.31 263.85 98.15 254.58 98.77 245.32 99.17 236.05 99.32 226.79 99.22 217.52 98.87 208.26 98.29 198.99 97.49 189.73 96.51 180.47 95.37 171.2 94.11 161.94 92.79 152.67 91.43 143.41 90.1 134.14 88.83 124.88 87.67 115.62 86.65 106.35 85.82 97.09 85.2 87.82 84.81 78.56" stroke-dasharray="1 1" transform="rotate(0, 400, 400)" opacity="0.05"></path><path d="M95.58 89.52Q104.28 90.22 112.98 91.26 121.67 92.62 130.37 94.24 139.06 96.1 147.76 98.14 156.46 100.31 165.15 102.55 173.85 104.8 182.54 107.01 191.24 109.11 199.94 111.04 208.63 112.77 217.33 114.23 234.72 116.06 252.11 116.85 269.5 115.84 286.9 113.8 295.59 112.25 304.29 110.46 312.98 108.46 321.68 106.33 330.38 104.1 339.07 101.85 347.77 99.62 356.46 97.49 365.16 95.5 373.86 93.71 382.55 92.16 391.25 90.9 408.64 89.55 426.03 89.27 434.73 89.77 443.43 90.61 452.12 91.79 460.82 93.26 469.51 94.98 478.21 96.92 486.91 99.02 495.6 101.23 504.3 103.48 512.99 105.72 521.69 107.89 530.39 109.93 539.08 111.78 547.78 113.4 565.17 115.62 582.56 116.82 599.95 116.23 617.35 114.58 626.04 113.19 634.74 111.54 649.87 113.32 661.77 126.39 668.36 135.79 675.85 145.18 684.02 154.58 692.6 163.98 701.32 173.37 709.9 182.77 718.08 192.17 725.58 201.56 732.17 210.96 737.65 220.36 741.83 229.75 744.59 239.15 745.84 248.55 745.54 257.94 743.69 267.34 740.36 276.74 735.65 286.13 729.72 295.53 722.74 304.93 714.95 314.32 706.58 323.72 697.91 333.12 689.21 342.51 680.76 351.91 672.83 361.31 665.66 370.71 659.49 380.1 654.51 389.5 650.88 398.9 648.71 408.29 648.08 417.69 649.01 427.09 651.45 436.48 655.35 445.88 660.57 455.28 666.94 464.67 674.27 474.07 682.32 483.47 690.84 492.86 699.56 502.26 708.19 511.66 716.47 521.05 724.12 530.45 730.92 539.85 736.64 549.24 741.1 558.64 744.15 568.04 745.71 577.43 745.72 586.83 744.19 596.23 741.15 605.62 736.71 615.02 731.01 624.42 724.23 633.81 716.58 643.21 708.31 652.61 699.68 662 690.97 671.4 682.44 680.8 674.38 690.19 667.04 699.59 660.65 708.99 651.84 714.36 643.04 719.26 634.23 723.58 625.42 727.2 616.61 730.02 607.81 731.96 599 732.98 590.19 733.04 581.39 732.16 572.58 730.34 563.77 727.64 554.96 724.13 546.16 719.9 537.35 715.07 528.54 709.75 519.74 704.1 510.93 698.27 502.12 692.4 493.31 686.65 484.51 681.17 475.7 676.11 466.89 671.61 458.09 667.77 449.28 664.71 440.47 662.51 431.66 661.21 422.86 660.87 414.05 661.47 405.24 663.02 396.44 665.47 387.63 668.75 378.82 672.78 370.01 677.45 361.21 682.63 352.4 688.2 343.59 694 334.78 699.88 325.98 705.68 317.17 711.25 308.36 716.44 299.56 721.12 290.75 725.17 281.94 728.46 273.13 730.93 264.33 732.49 255.52 733.12 246.71 732.79 237.91 731.52 229.1 729.33 220.29 726.28 211.48 722.47 202.68 717.97 193.87 712.93 185.06 707.46 176.26 701.71 167.45 695.84 158.64 690 149.83 684.35 141.03 679.03 132.22 674.18 123.41 669.94 114.61 666.41 101.92 658.31 99.26 643.98 100.59 635.03 102 626.09 103.44 617.15 104.86 608.2 106.23 599.26 107.49 590.32 108.61 581.38 109.56 572.43 110.29 563.49 110.79 554.55 111.05 545.6 111.04 536.66 110.79 527.72 110.28 518.78 109.54 509.83 108.6 500.89 107.48 491.95 106.21 483 104.84 474.06 103.42 465.12 101.98 456.18 100.57 447.23 99.24 438.29 98.03 429.35 96.98 420.4 96.12 411.46 95.47 402.52 95.07 393.58 94.91 384.63 95.02 375.69 95.38 366.75 95.98 357.8 96.8 348.86 97.82 339.92 99 330.97 100.31 322.03 101.71 313.09 103.15 304.15 104.58 295.2 105.96 286.26 107.25 277.32 108.4 268.37 109.38 259.43 110.16 250.49 110.71 241.55 111.01 232.6 111.06 223.66 110.86 214.72 110.4 205.77 109.71 196.83 108.81 187.89 107.72 178.95 106.48 170 105.13 161.06 103.71 152.12 102.27 143.17 100.85 134.23 99.5 125.29 98.26 116.35 97.18 107.4 96.27 98.46 95.58 89.52" stroke-dasharray="2 1" transform="rotate(5.222222222222222, 400, 400)" opacity="0.09"></path><path d="M106.81 101.01Q123.69 103.61 140.56 106.97 157.44 111.18 174.31 115.6 191.19 119.83 208.07 123.62 224.94 126.25 241.82 127.98 258.69 128.01 275.57 127.01 292.45 124.43 309.32 121.09 326.2 116.89 343.07 112.47 359.95 108.24 376.82 104.43 393.7 101.78 410.58 100.03 427.45 99.97 444.33 100.95 461.2 103.5 478.08 106.83 494.96 111.03 511.83 115.44 528.71 119.68 545.58 123.5 562.46 126.17 579.34 127.94 596.21 128.03 613.09 127.07 629.96 124.54 646.84 121.23 652.21 130.33 658.58 139.44 665.76 148.55 673.53 157.66 681.67 166.76 689.94 175.87 698.09 184.98 705.88 194.09 713.09 203.19 719.5 212.3 724.93 221.41 729.2 230.51 732.21 239.62 733.85 248.73 734.08 257.84 732.89 266.94 730.32 276.05 726.45 285.16 721.38 294.27 715.27 303.37 708.3 312.48 700.67 321.59 692.61 330.7 684.35 339.8 676.14 348.91 668.23 358.02 660.83 367.12 654.18 376.23 648.46 385.34 643.85 394.45 640.49 403.55 638.46 412.66 637.84 421.77 638.63 430.88 640.82 439.98 644.34 449.09 649.09 458.2 654.92 467.3 661.67 476.41 669.14 485.52 677.11 494.63 685.33 503.73 693.58 512.84 701.6 521.95 709.17 531.06 716.05 540.16 722.04 549.27 726.97 558.38 730.7 567.49 733.1 576.59 734.12 585.7 733.72 594.81 731.92 603.91 728.76 613.02 724.34 622.13 718.79 631.24 712.28 640.34 704.99 649.45 697.14 658.56 688.96 667.67 680.69 676.77 672.58 685.88 664.87 694.99 657.78 704.09 649.2 708.68 640.62 712.71 632.05 716.09 623.47 718.73 606.31 721.11 589.16 720.9 580.58 719.28 572 716.85 563.43 713.66 554.85 709.79 546.27 705.33 537.69 700.4 529.12 695.12 520.54 689.62 511.96 684.02 503.38 678.48 494.81 673.11 486.23 668.07 477.65 663.46 469.07 659.41 460.5 656.01 451.92 653.35 434.76 650.9 417.61 651.05 409.03 652.64 400.45 655.04 391.88 658.21 383.3 662.06 374.72 666.49 366.14 671.4 357.57 676.67 348.99 682.17 340.41 687.77 331.83 693.32 323.26 698.69 314.68 703.75 306.1 708.37 297.52 712.44 288.95 715.87 280.37 718.56 263.21 721.07 246.06 720.98 237.48 719.42 228.9 717.05 220.33 713.91 211.75 710.08 203.17 705.67 194.59 700.77 186.02 695.51 177.44 690.02 168.86 684.42 160.28 678.87 151.71 673.49 143.13 668.42 134.55 663.78 125.97 659.68 113.76 650.55 111.53 636.24 113.02 627.61 114.54 618.98 117.43 601.71 120.01 584.45 121.73 567.18 122.75 549.92 122.51 532.65 121.51 515.39 119.43 498.12 116.86 480.86 115.39 472.22 113.87 463.59 110.95 446.32 108.29 429.06 106.46 411.79 105.3 394.53 105.4 377.26 106.26 360 108.24 342.73 110.73 325.47 112.19 316.83 113.69 308.2 116.65 290.94 119.37 273.67 121.31 256.4 122.6 239.14 122.65 221.87 121.92 204.61 120.05 187.34 117.64 170.08 116.21 161.44 114.72 152.81 113.2 144.18 111.71 135.55 109.04 118.28 106.81 101.01" stroke-dasharray="1 3" transform="rotate(10.444444444444445, 400, 400)" opacity="0.12"></path><path d="M118.54 113.06Q134.93 116.14 151.33 120.02 167.72 124.35 184.11 128.74 200.51 132.79 216.9 136.13 233.29 138.47 249.68 139.6 266.08 139.41 282.47 137.91 298.86 135.25 315.25 131.67 331.65 127.48 348.04 123.07 364.43 118.83 380.83 115.15 397.22 112.36 413.61 110.71 430 110.34 446.4 111.3 462.79 113.49 479.18 116.73 495.57 120.7 511.97 125.07 528.36 129.43 544.75 133.39 561.14 136.59 577.54 138.74 593.93 139.66 610.32 139.25 626.72 137.55 643.11 134.73 656.22 152.34 671.36 169.96 686.9 187.57 701.15 205.18 712.56 222.8 719.91 240.41 722.4 258.03 719.76 275.64 712.26 293.26 700.74 310.87 686.43 328.49 670.88 346.1 655.77 363.72 642.75 381.33 633.22 398.95 628.21 416.56 628.26 434.17 633.38 451.79 643 469.4 656.08 487.02 671.21 504.63 686.76 522.25 701.02 539.86 712.47 557.48 719.87 575.09 722.4 592.71 719.8 610.32 712.36 627.93 700.86 645.55 686.57 663.16 671.02 680.78 655.91 698.39 639.2 705.19 622.48 709.27 605.77 710.25 589.06 708.05 572.35 702.87 555.64 695.17 538.93 685.65 522.21 675.17 505.5 664.68 488.79 655.11 472.08 647.34 455.37 642.07 438.65 639.76 421.94 640.64 405.23 644.62 388.52 651.33 371.81 660.18 355.1 670.37 338.38 680.98 321.67 691.04 304.96 699.66 288.25 706.05 271.54 709.64 254.83 710.11 238.11 707.4 221.4 701.77 204.69 693.72 187.98 683.99 171.27 673.44 154.56 663.03 137.84 653.71 121.13 646.3 124.19 629.64 127.34 612.97 130.23 596.31 132.56 579.64 134.06 562.98 134.59 546.32 134.08 529.65 132.58 512.99 130.26 496.33 127.38 479.66 124.23 463 121.17 446.33 118.52 429.67 116.57 413.01 115.54 396.34 115.53 379.68 116.54 363.02 118.47 346.35 121.1 329.69 124.16 313.02 127.31 296.36 130.2 279.7 132.54 263.03 134.05 246.37 134.59 229.71 134.09 213.04 132.6 196.38 130.29 179.71 127.4 163.05 124.26 146.39 121.2 129.72 118.54 113.06" stroke-dasharray="3 1" transform="rotate(15.666666666666666, 400, 400)" opacity="0.16"></path><path d="M130.8 125.64Q146.73 129.21 162.66 133.34 178.59 137.69 194.52 141.91 210.45 145.63 226.38 148.55 242.31 150.42 258.24 151.09 274.17 150.51 290.1 148.72 306.03 145.87 321.96 142.2 337.89 138.01 353.82 133.66 369.75 129.5 385.68 125.88 401.61 123.1 417.54 121.39 433.47 120.9 449.4 121.67 465.33 123.63 481.26 126.61 497.19 130.38 513.12 134.62 529.05 138.97 544.98 143.07 560.91 146.58 576.84 149.21 592.77 150.75 608.7 151.05 624.63 150.11 640.56 147.98 654.32 164.97 669.04 181.97 683.26 198.96 695.55 215.95 704.7 232.94 709.78 249.93 710.29 266.92 706.17 283.91 697.85 300.9 686.14 317.9 672.23 334.89 657.49 351.88 643.4 368.87 631.37 385.86 622.59 402.85 617.95 419.84 617.91 436.83 622.47 453.83 631.17 470.82 643.15 487.81 657.21 504.8 671.95 521.79 685.9 538.78 697.65 555.77 706.05 572.76 710.25 589.76 709.83 606.75 704.83 623.74 695.76 640.73 683.52 657.72 669.32 674.71 654.6 691.7 638.32 696.61 622.05 698.8 605.78 698.09 589.51 694.55 573.24 688.46 556.97 680.34 540.7 670.86 524.42 660.81 508.15 651.02 491.88 642.31 475.61 635.41 459.34 630.88 443.07 629.11 426.8 630.25 410.52 634.19 394.25 640.61 377.98 648.98 361.71 658.59 345.44 668.66 329.17 678.34 312.9 686.82 296.62 693.41 280.35 697.55 264.08 698.89 247.81 697.34 231.54 693 215.27 686.26 199 677.66 182.72 667.92 166.45 657.86 150.18 648.31 133.91 640.06 137.18 623.99 140.33 607.91 143.04 591.84 145.06 575.76 146.16 559.68 146.26 543.61 145.33 527.53 143.46 511.46 140.85 495.38 137.76 479.31 134.49 463.23 131.37 447.15 128.71 431.08 126.78 415 125.77 398.93 125.78 382.85 126.81 366.78 128.76 350.7 131.43 334.62 134.55 318.55 137.82 302.47 140.91 286.4 143.51 270.32 145.35 254.25 146.27 238.17 146.15 222.09 145.03 206.02 143 189.94 140.27 173.87 137.11 157.79 133.85 141.72 130.8 125.64" stroke-dasharray="0 5" transform="rotate(20.88888888888889, 400, 400)" opacity="0.19"></path><path d="M143.56 138.72Q159.03 142.63 174.51 146.87 189.99 151.13 205.46 155.06 220.94 158.38 236.41 160.83 251.89 162.22 267.37 162.45 282.84 161.5 298.32 159.43 313.79 156.42 329.27 152.68 344.75 148.51 360.22 144.22 375.7 140.15 391.17 136.6 406.65 133.84 422.13 132.09 437.6 131.48 453.08 132.06 468.55 133.78 484.03 136.5 499.51 140.03 514.98 144.1 530.46 148.38 545.93 152.56 561.41 156.31 576.89 159.35 592.36 161.45 607.84 162.44 623.31 162.25 638.79 160.89 652.51 177.23 666.27 193.58 678.82 209.92 688.99 226.27 695.86 242.61 698.8 258.95 697.54 275.3 692.19 291.64 683.24 307.98 671.52 324.33 658.09 340.67 644.2 357.02 631.12 373.36 620.04 389.7 611.99 406.05 607.7 422.39 607.57 438.73 611.6 455.08 619.43 471.42 630.35 487.76 643.34 504.11 657.21 520.45 670.7 536.8 682.57 553.14 691.72 569.48 697.32 585.83 698.85 602.17 696.17 618.51 689.53 634.86 679.54 651.2 667.12 667.55 653.39 683.89 637.57 686.91 621.75 687.33 605.93 685.13 590.11 680.47 574.28 673.71 558.46 665.37 542.64 656.08 526.82 646.55 511 637.52 495.17 629.67 479.35 623.6 463.53 619.79 447.71 618.51 431.89 619.87 416.06 623.76 400.24 629.88 384.42 637.78 368.6 646.84 352.78 656.37 336.95 665.64 321.13 673.94 305.31 680.64 289.49 685.23 273.67 687.36 257.84 686.85 242.02 683.76 226.2 678.31 210.38 670.93 194.56 662.18 178.74 652.73 162.91 643.29 147.09 634.6 150.41 619.1 153.42 603.61 155.84 588.11 157.44 572.61 158.09 557.12 157.72 541.62 156.37 526.13 154.15 510.63 151.28 495.13 148.02 479.64 144.66 464.14 141.51 448.64 138.87 433.15 136.98 417.65 136 402.16 136.03 386.66 137.07 371.16 139.02 355.67 141.7 340.17 144.87 324.67 148.23 309.18 151.48 293.68 154.31 278.19 156.48 262.69 157.77 247.19 158.08 231.7 157.37 216.2 155.71 200.71 153.24 185.21 150.21 169.71 146.88 154.22 143.56 138.72" stroke-dasharray="1 4" transform="rotate(26.11111111111111, 400, 400)" opacity="0.23"></path><path d="M156.77 152.24Q171.79 156.34 186.81 160.55 201.83 164.58 216.85 168.15 231.86 171.01 246.88 172.96 261.9 173.87 276.92 173.66 291.94 172.35 306.95 170.04 321.97 166.89 336.99 163.11 352.01 158.98 367.03 154.77 382.04 150.8 397.06 147.32 412.08 144.6 427.1 142.81 442.11 142.08 457.13 142.47 472.15 143.95 487.17 146.4 502.19 149.67 517.2 153.53 532.22 157.69 547.24 161.88 562.26 165.79 577.28 169.16 592.29 171.75 607.31 173.37 622.33 173.92 637.35 173.35 650.42 189.03 662.78 204.7 673.4 220.37 681.38 236.04 686.05 251.71 687.02 267.39 684.21 283.06 677.85 298.73 668.48 314.4 656.88 330.07 644.03 345.75 631.02 361.42 618.92 377.09 608.77 392.76 601.4 408.43 597.45 424.11 597.23 439.78 600.78 455.45 607.79 471.12 617.68 486.79 629.6 502.47 642.57 518.14 655.49 533.81 667.27 549.48 676.94 565.15 683.66 580.83 686.89 596.5 686.34 612.17 682.07 627.84 674.44 643.51 664.07 659.19 651.85 674.86 636.5 676.07 621.15 674.9 605.8 671.42 590.45 665.89 575.09 658.68 559.74 650.3 544.39 641.35 529.04 632.43 513.69 624.19 498.33 617.19 482.98 611.93 467.63 608.78 452.28 607.95 436.92 609.5 421.57 613.33 406.22 619.16 390.87 626.59 375.52 635.1 360.16 644.1 344.81 652.94 329.46 661.02 314.11 667.77 298.76 672.71 283.4 675.51 268.05 675.95 252.7 674.02 237.35 669.85 221.99 663.73 206.64 656.09 191.29 647.46 175.94 638.45 160.59 629.68 163.8 614.76 166.52 599.84 168.53 584.92 169.65 570 169.79 555.08 168.95 540.16 167.18 525.24 164.64 510.32 161.54 495.4 158.15 480.48 154.74 465.56 151.6 450.64 149.01 435.72 147.16 420.8 146.23 405.88 146.29 390.96 147.33 376.04 149.26 361.12 151.93 346.2 155.11 331.28 158.53 316.36 161.91 301.44 164.95 286.52 167.42 271.6 169.09 256.68 169.83 241.76 169.57 226.84 168.35 211.92 166.25 197 163.46 182.08 160.21 167.16 156.77 152.24" stroke-dasharray="5 5" transform="rotate(31.333333333333332, 400, 400)" opacity="0.26"></path><path d="M170.36 166.12Q184.91 170.25 199.45 174.29 213.99 177.99 228.54 181.12 243.08 183.48 257.63 184.91 272.17 185.33 286.72 184.7 301.26 183.07 315.81 180.55 330.35 177.28 344.9 173.49 359.44 169.41 373.99 165.31 388.53 161.44 403.08 158.05 417.62 155.36 432.17 153.54 446.71 152.71 461.26 152.91 475.8 154.14 490.35 156.33 504.89 159.31 519.44 162.92 533.98 166.92 548.53 171.04 563.07 175.04 577.62 178.65 592.16 181.64 606.71 183.83 621.25 185.07 635.8 185.29 647.71 200.26 658.34 215.24 666.87 230.22 672.66 245.2 675.25 260.17 674.46 275.15 670.34 290.13 663.2 305.11 653.6 320.08 642.26 335.06 630.07 350.04 617.94 365.02 606.81 379.99 597.54 394.97 590.83 409.95 587.19 424.93 586.91 439.9 590.01 454.88 596.24 469.86 605.14 484.84 616.02 499.81 628.04 514.79 640.29 529.77 651.83 544.74 661.77 559.72 669.36 574.7 674.01 589.68 675.36 604.65 673.31 619.63 668.03 634.61 659.9 649.59 649.57 664.56 634.71 664.12 619.86 661.57 605.01 657.06 590.16 650.89 575.3 643.45 560.45 635.21 545.6 626.71 530.74 618.48 515.89 611.05 501.04 604.89 486.19 600.4 471.33 597.86 456.48 597.43 441.63 599.15 426.77 602.9 411.92 608.44 397.07 615.42 382.22 623.39 367.36 631.85 352.51 640.26 337.66 648.07 322.8 654.8 307.95 660 293.1 663.36 278.25 664.65 263.39 663.79 248.54 660.84 233.69 655.98 218.83 649.53 203.98 641.9 189.13 633.57 174.28 625.08 177.21 610.74 179.52 596.39 181.03 582.05 181.61 567.71 181.22 553.37 179.9 539.02 177.75 524.68 174.92 510.34 171.64 496 168.16 481.65 164.74 467.31 161.64 452.97 159.11 438.63 157.34 424.29 156.46 409.94 156.54 395.6 157.57 381.26 159.48 366.92 162.12 352.57 165.28 338.23 168.73 323.89 172.2 309.55 175.42 295.2 178.15 280.86 180.18 266.52 181.35 252.18 181.58 237.84 180.84 223.49 179.2 209.15 176.77 194.81 173.75 180.47 170.36 166.12" stroke-dasharray="3 3" transform="rotate(36.55555555555555, 400, 400)" opacity="0.30"></path><path d="M184.2 180.27Q198.25 184.26 212.3 188.01 226.34 191.29 240.39 193.92 254.44 195.74 268.49 196.65 282.53 196.59 296.58 195.58 310.63 193.66 324.67 190.95 338.72 187.61 352.77 183.82 366.82 179.82 380.86 175.82 394.91 172.07 408.96 168.77 423.01 166.13 437.05 164.28 451.1 163.35 465.15 163.38 479.2 164.38 493.24 166.27 507.29 168.97 521.34 172.3 535.38 176.08 549.43 180.08 563.48 184.08 577.53 187.84 591.57 191.15 605.62 193.81 619.67 195.67 633.72 196.63 644.06 210.89 652.73 225.15 659.13 239.41 662.81 253.68 663.51 267.94 661.19 282.2 656 296.46 648.31 310.72 638.65 324.99 627.69 339.25 616.2 353.51 604.98 367.77 594.79 382.03 586.36 396.3 580.27 410.56 576.94 424.82 576.6 439.08 579.28 453.34 584.79 467.61 592.74 481.87 602.59 496.13 613.65 510.39 625.15 524.65 636.29 538.92 646.3 553.18 654.48 567.44 660.27 581.7 663.25 595.96 663.23 610.23 660.2 624.49 654.38 638.75 646.16 653.01 631.85 651.12 617.53 647.42 603.21 642.14 588.89 635.57 574.58 628.1 560.26 620.16 545.94 612.21 531.63 604.72 517.31 598.1 502.99 592.76 488.68 588.99 474.36 587.02 460.04 586.96 445.72 588.81 431.41 592.46 417.09 597.71 402.77 604.25 388.46 611.71 374.14 619.64 359.82 627.59 345.51 635.11 331.19 641.74 316.87 647.12 302.55 650.93 288.24 652.95 273.92 653.05 259.6 651.25 245.29 647.63 230.97 642.41 216.65 635.9 202.33 628.46 188.02 620.54 190.54 606.78 192.32 593.02 193.25 579.26 193.26 565.5 192.34 551.74 190.57 537.99 188.06 524.23 184.99 510.47 181.58 496.71 178.05 482.95 174.66 469.19 171.64 455.44 169.2 441.68 167.51 427.92 166.69 414.16 166.79 400.4 167.82 386.64 169.68 372.89 172.27 359.13 175.39 345.37 178.83 331.61 182.36 317.85 185.71 304.09 188.68 290.34 191.03 276.58 192.62 262.82 193.34 249.06 193.12 235.3 191.99 221.54 190.03 207.78 187.37 194.03 184.2 180.27" stroke-dasharray="3 2" transform="rotate(41.77777777777778, 400, 400)" opacity="0.33"></path><path d="M198.16 194.56Q211.67 198.28 225.19 201.62 238.71 204.4 252.23 206.49 265.75 207.76 279.26 208.16 292.78 207.65 306.3 206.28 319.82 204.11 333.33 201.25 346.85 197.86 360.37 194.11 373.89 190.19 387.4 186.32 400.92 182.69 414.44 179.49 427.96 176.9 441.47 175.04 454.99 174.02 468.51 173.89 482.03 174.65 495.55 176.26 509.06 178.65 522.58 181.68 536.1 185.19 549.62 189.02 563.13 192.94 576.65 196.76 590.17 200.28 603.69 203.32 617.2 205.71 630.72 207.33 639.23 220.86 645.83 234.39 650.13 247.92 651.84 261.45 650.86 274.98 647.26 288.51 641.25 302.03 633.22 315.56 623.67 329.09 613.19 342.62 602.46 356.15 592.13 369.68 582.86 383.21 575.24 396.74 569.73 410.26 566.69 423.79 566.3 437.32 568.59 450.85 573.42 464.38 580.48 477.91 589.33 491.44 599.42 504.97 610.11 518.49 620.72 532.02 630.61 545.55 639.13 559.08 645.76 572.61 650.09 586.14 651.83 599.67 650.89 613.2 647.32 626.72 641.34 640.25 627.6 637.15 613.86 632.58 600.12 626.77 586.38 620.03 572.64 612.72 558.9 605.21 545.16 597.9 531.42 591.17 517.68 585.37 503.94 580.81 490.2 577.72 476.46 576.26 462.72 576.52 448.98 578.48 435.24 582.03 421.5 586.99 407.76 593.1 394.02 600.05 380.28 607.46 366.54 614.95 352.8 622.13 339.06 628.62 325.32 634.09 311.58 638.24 297.84 640.87 284.1 641.83 270.36 641.07 256.62 638.64 242.88 634.65 229.14 629.33 215.4 622.94 201.66 615.82 203.63 602.65 204.81 589.49 205.12 576.32 204.54 563.16 203.12 550 200.93 536.83 198.12 523.67 194.86 510.5 191.36 497.34 187.84 484.17 184.51 471.01 181.6 457.85 179.27 444.68 177.68 431.52 176.92 418.35 177.05 405.19 178.05 392.02 179.87 378.86 182.38 365.7 185.44 352.53 188.84 339.37 192.38 326.2 195.83 313.04 198.98 299.87 201.63 286.71 203.61 273.55 204.8 260.38 205.12 247.22 204.55 234.05 203.14 220.89 200.96 207.72 198.16 194.56" stroke-dasharray="1 6" transform="rotate(47, 400, 400)" opacity="0.37"></path><path d="M212.07 208.88Q225.02 212.2 237.97 215.04 250.92 217.27 263.87 218.78 276.82 219.51 289.77 219.41 302.72 218.5 315.67 216.81 328.62 214.42 341.57 211.45 354.52 208.04 367.47 204.34 380.42 200.54 393.37 196.8 406.33 193.3 419.28 190.22 432.23 187.68 445.18 185.82 458.13 184.72 471.08 184.43 484.03 184.96 496.98 186.3 509.93 188.37 522.88 191.08 535.83 194.3 548.78 197.88 561.73 201.66 574.68 205.45 587.63 209.08 600.58 212.38 613.53 215.19 626.48 217.38 632.99 230.16 637.53 242.94 639.83 255.73 639.78 268.51 637.38 281.29 632.75 294.07 626.16 306.85 617.99 319.63 608.69 332.41 598.79 345.19 588.84 357.98 579.4 370.76 571.02 383.54 564.16 396.32 559.2 409.1 556.43 421.88 556.01 434.66 557.95 447.44 562.14 460.23 568.36 473.01 576.25 485.79 585.37 498.57 595.19 511.35 605.18 524.13 614.76 536.91 623.39 549.7 630.59 562.48 635.96 575.26 639.19 588.04 640.09 600.82 638.62 613.6 634.86 626.38 621.74 622.34 608.62 617.16 595.5 611.07 582.38 604.37 569.26 597.38 556.14 590.41 543.02 583.8 529.9 577.85 516.78 572.85 503.66 569.03 490.54 566.57 477.42 565.59 464.3 566.12 451.19 568.16 438.07 571.59 424.95 576.27 411.83 581.96 398.71 588.41 385.59 595.31 372.47 602.33 359.35 609.15 346.23 615.45 333.11 620.92 319.99 625.32 306.87 628.44 293.75 630.13 280.63 630.31 267.51 628.97 254.39 626.18 241.27 622.06 228.15 616.82 215.03 610.69 216.36 598.13 216.88 585.58 216.56 573.02 215.42 560.46 213.52 547.91 210.97 535.35 207.92 522.79 204.53 510.24 201 497.68 197.53 485.12 194.31 472.57 191.52 460.01 189.32 447.45 187.84 434.9 187.15 422.34 187.3 409.78 188.28 397.23 190.03 384.67 192.46 372.11 195.42 359.56 198.76 347 202.27 334.44 205.78 321.89 209.06 309.33 211.95 296.77 214.28 284.22 215.92 271.66 216.77 259.1 216.79 246.55 215.97 233.99 214.37 221.43 212.07 208.88" stroke-dasharray="2 3" transform="rotate(52.22222222222222, 400, 400)" opacity="0.40"></path><path d="M225.76 223.08Q238.1 225.9 250.45 228.18 262.79 229.83 275.13 230.77 287.48 230.96 299.82 230.4 312.16 229.11 324.51 227.15 336.85 224.6 349.19 221.55 361.54 218.15 373.88 214.54 386.22 210.86 398.57 207.26 410.91 203.91 423.25 200.94 435.6 198.48 447.94 196.62 460.28 195.45 472.63 195.01 484.97 195.33 497.31 196.38 509.66 198.14 522 200.51 534.34 203.41 546.68 206.71 559.03 210.28 571.37 213.95 583.71 217.59 596.06 221.03 608.4 224.14 620.74 226.78 625.22 238.81 627.78 250.83 628.28 262.85 626.71 274.88 623.14 286.9 617.75 298.92 610.81 310.95 602.68 322.97 593.76 334.99 584.49 347.02 575.35 359.04 566.8 371.07 559.27 383.09 553.13 395.11 548.69 407.14 546.18 419.16 545.72 431.18 547.34 443.21 550.95 455.23 556.38 467.25 563.35 479.28 571.5 491.3 580.44 503.32 589.71 515.35 598.84 527.37 607.37 539.39 614.88 551.42 620.98 563.44 625.38 575.46 627.84 587.49 621.19 603.17 601.68 601.3 589.22 595.17 576.76 588.7 564.31 582.16 551.85 575.81 539.39 569.94 526.94 564.78 514.48 560.55 502.02 557.43 489.57 555.55 477.11 554.99 464.65 555.76 452.19 557.85 439.74 561.15 427.28 565.54 414.82 570.83 402.37 576.8 389.91 583.19 377.45 589.74 365 596.18 352.54 602.23 340.08 607.64 327.63 612.19 315.17 615.68 302.71 617.97 290.26 618.97 277.8 618.62 265.34 616.95 252.89 614.02 240.43 609.97 227.97 604.94 228.6 593.01 228.45 581.08 227.51 569.15 225.85 557.21 223.54 545.28 220.7 533.35 217.47 521.41 214.02 509.48 210.52 497.55 207.14 485.61 204.05 473.68 201.41 461.75 199.36 449.81 197.99 437.88 197.38 425.95 197.56 414.01 198.5 402.08 200.18 390.15 202.51 378.21 205.36 366.28 208.59 354.35 212.05 342.41 215.55 330.48 218.93 318.55 222 306.61 224.63 294.68 226.67 282.75 228.02 270.81 228.61 258.88 228.42 246.95 227.46 235.01 225.76 223.08" stroke-dasharray="3 2" transform="rotate(57.44444444444444, 400, 400)" opacity="0.44"></path><path d="M239.07 237.04Q250.77 239.29 262.46 240.97 274.16 242.01 285.85 242.39 297.55 242.09 309.24 241.11 320.94 239.5 332.63 237.32 344.33 234.63 356.02 231.56 367.72 228.2 379.41 224.69 391.11 221.15 402.8 217.71 414.5 214.51 426.19 211.66 437.89 209.27 449.58 207.43 461.28 206.2 472.97 205.63 484.67 205.75 496.36 206.54 508.06 207.98 519.75 210.01 531.45 212.56 543.14 215.54 554.84 218.83 566.53 222.31 578.23 225.86 589.93 229.34 601.62 232.61 613.32 235.57 615.84 246.83 616.59 258.09 615.53 269.35 612.7 280.61 608.24 291.87 602.34 303.13 595.27 314.39 587.34 325.65 578.9 336.91 570.33 348.17 562.02 359.43 554.33 370.69 547.6 381.95 542.14 393.21 538.19 404.46 535.92 415.72 535.45 426.98 536.77 438.24 539.85 449.5 544.54 460.76 550.63 472.02 557.85 483.28 565.88 494.54 574.36 505.8 582.92 517.06 591.16 528.32 598.73 539.58 605.29 550.84 610.54 562.1 614.25 573.36 610.48 587.71 592.95 585.17 581.2 579.2 569.45 573.11 557.69 567.13 545.94 561.48 534.18 556.36 522.43 551.98 510.68 548.49 498.92 546.01 487.17 544.66 475.42 544.46 463.66 545.44 451.91 547.55 440.15 550.71 428.4 554.82 416.65 559.71 404.89 565.21 393.14 571.1 381.39 577.18 369.63 583.22 357.88 588.98 346.12 594.27 334.37 598.87 322.62 602.63 310.86 605.4 299.11 607.07 287.36 607.59 275.6 606.94 263.85 605.14 252.09 602.26 240.34 598.4 240.26 587.11 239.45 575.82 237.95 564.53 235.83 553.23 233.18 541.94 230.12 530.65 226.79 519.36 223.34 508.06 219.91 496.77 216.67 485.48 213.75 474.19 211.29 462.89 209.4 451.6 208.15 440.31 207.62 429.02 207.81 417.72 208.72 406.43 210.32 395.14 212.53 383.85 215.24 372.55 218.35 361.26 221.71 349.97 225.17 338.68 228.58 327.38 231.78 316.09 234.64 304.8 237.02 293.51 238.82 282.21 239.96 270.92 240.39 259.63 240.09 248.34 239.07 237.04" stroke-dasharray="3 5" transform="rotate(62.666666666666664, 400, 400)" opacity="0.47"></path><path d="M251.83 250.63Q262.84 252.26 273.85 253.32 284.86 253.79 295.87 253.64 306.87 252.88 317.88 251.54 328.89 249.66 339.9 247.3 350.91 244.54 361.92 241.47 372.92 238.18 383.93 234.79 394.94 231.41 405.95 228.15 416.96 225.11 427.96 222.39 438.97 220.08 449.98 218.26 460.99 216.99 472 216.3 483.01 216.23 494.01 216.76 505.02 217.9 516.03 219.59 527.04 221.78 538.05 224.4 549.06 227.37 560.06 230.59 571.07 233.96 582.08 237.35 593.09 240.67 604.1 243.81 604.84 254.3 604.02 264.79 601.67 275.29 597.88 285.78 592.8 296.28 586.63 306.77 579.62 317.26 572.03 327.76 564.16 338.25 556.33 348.74 548.84 359.24 541.98 369.73 536.02 380.22 531.2 390.72 527.71 401.21 525.67 411.71 525.18 422.2 526.25 432.69 528.83 443.19 532.84 453.68 538.1 464.17 544.42 474.67 551.55 485.16 559.2 495.65 567.08 506.15 574.88 516.64 582.29 527.14 589.02 537.63 594.81 548.12 599.44 558.62 598.1 571.76 582.47 568.9 571.46 563.27 560.44 557.7 549.42 552.36 538.41 547.44 527.39 543.08 516.38 539.45 505.36 536.65 494.35 534.77 483.33 533.88 472.32 534.01 461.3 535.14 450.28 537.25 439.27 540.27 428.25 544.1 417.24 548.6 406.22 553.64 395.21 559.06 384.19 564.66 373.18 570.28 362.16 575.72 351.15 580.82 340.13 585.4 329.11 589.31 318.1 592.43 307.08 594.65 296.07 595.9 285.05 596.15 274.04 595.38 263.02 593.61 252.01 590.92 251.23 580.28 249.83 569.65 247.83 559.02 245.34 548.38 242.44 537.75 239.25 527.11 235.89 516.48 232.5 505.85 229.2 495.21 226.14 484.58 223.42 473.94 221.15 463.31 219.42 452.68 218.31 442.04 217.85 431.41 218.06 420.77 218.94 410.14 220.44 399.51 222.52 388.87 225.08 378.24 228.04 367.6 231.26 356.97 234.64 346.34 238.02 335.7 241.29 325.07 244.31 314.44 246.97 303.8 249.15 293.17 250.78 282.53 251.8 271.9 252.15 261.27 251.83 250.63" stroke-dasharray="1 1" transform="rotate(67.88888888888889, 400, 400)" opacity="0.51"></path><path d="M263.9 263.73Q274.19 264.72 284.48 265.19 294.76 265.1 305.05 264.48 315.34 263.33 325.62 261.68 335.91 259.59 346.2 257.11 356.48 254.32 366.77 251.29 377.06 248.1 387.34 244.86 397.63 241.65 407.92 238.57 418.2 235.69 428.49 233.11 438.78 230.9 449.06 229.11 459.35 227.81 469.64 227.02 479.92 226.77 490.21 227.07 500.5 227.91 510.78 229.26 521.07 231.09 531.36 233.34 541.64 235.95 551.93 238.85 562.22 241.95 572.5 245.16 587.53 254.85 590.17 271.04 586.83 280.76 582.36 290.49 576.93 300.22 570.71 309.95 563.92 319.68 556.79 329.41 549.57 339.14 542.5 348.87 535.82 358.6 529.76 368.33 524.53 378.06 520.31 387.79 517.23 397.52 515.42 407.25 514.92 416.98 515.75 426.71 517.9 436.44 521.27 446.17 525.77 455.9 531.22 465.63 537.46 475.36 544.26 485.09 551.39 494.82 558.62 504.55 565.68 514.28 572.35 524.01 578.38 533.74 583.59 543.47 572.13 551.52 549.83 542.55 539.58 537.92 529.33 533.73 519.08 530.13 508.83 527.2 498.59 525.04 488.34 523.7 478.09 523.22 467.84 523.62 457.59 524.88 447.34 526.97 437.1 529.83 426.85 533.37 416.6 537.5 406.35 542.11 396.1 547.05 385.85 552.18 375.6 557.37 365.36 562.46 355.11 567.32 344.86 571.79 334.61 575.76 324.36 579.1 314.11 581.74 303.87 583.58 293.62 584.58 283.37 584.72 267.3 578.2 259.56 562.47 257.17 552.51 254.4 542.55 251.35 532.59 248.11 522.63 244.8 512.68 241.53 502.72 238.42 492.76 235.56 482.8 233.06 472.84 231 462.89 229.45 452.93 228.47 442.97 228.09 433.01 228.32 423.05 229.15 413.1 230.56 403.14 232.49 393.18 234.89 383.22 237.67 373.26 240.73 363.31 243.97 353.35 247.28 343.39 250.54 333.43 253.65 323.48 256.5 313.52 258.99 303.56 261.04 293.6 262.57 283.64 263.54 273.69 263.9 263.73" stroke-dasharray="2 0" transform="rotate(73.1111111111111, 400, 400)" opacity="0.54"></path><path d="M275.17 276.23Q284.71 276.61 294.24 276.51 303.78 275.94 313.32 274.9 322.85 273.42 332.39 271.53 341.92 269.29 351.46 266.75 360.99 263.97 370.53 261.02 380.07 257.97 389.6 254.89 399.14 251.87 408.67 248.97 418.21 246.27 427.75 243.84 437.28 241.72 446.82 239.98 456.35 238.66 465.89 237.79 475.42 237.38 484.96 237.46 494.5 238.02 504.03 239.05 513.57 240.51 523.1 242.38 532.64 244.61 542.17 247.14 551.71 249.91 561.25 252.86 574.53 261.93 575.19 276.93 571.16 285.9 566.3 294.87 560.75 303.84 554.67 312.81 548.26 321.79 541.69 330.76 535.15 339.73 528.85 348.7 522.97 357.67 517.67 366.64 513.12 375.61 509.46 384.59 506.78 393.56 505.16 402.53 504.67 411.5 505.3 420.47 507.04 429.44 509.84 438.41 513.62 447.39 518.27 456.36 523.64 465.33 529.58 474.3 535.92 483.27 542.47 492.24 549.03 501.22 555.42 510.19 561.44 519.16 566.91 528.13 558.07 535.63 537.77 527.76 528.31 523.85 518.85 520.4 509.39 517.51 499.93 515.25 490.47 513.66 481 512.8 471.54 512.67 462.08 513.29 452.62 514.64 443.16 516.69 433.7 519.38 424.24 522.65 414.78 526.42 405.32 530.59 395.86 535.07 386.4 539.75 376.94 544.5 367.48 549.22 358.02 553.78 348.56 558.08 339.1 562.01 329.64 565.47 320.18 568.39 310.72 570.67 301.26 572.28 291.8 573.17 276.65 568.39 268.64 554.2 265.98 544.93 263.05 535.67 259.94 526.4 256.74 517.14 253.55 507.87 250.46 498.6 247.57 489.34 244.95 480.07 242.69 470.81 240.85 461.54 239.48 452.28 238.63 443.01 238.33 433.74 238.57 424.48 239.36 415.21 240.66 405.95 242.45 396.68 244.66 387.42 247.24 378.15 250.11 368.88 253.18 359.62 256.36 350.35 259.56 341.09 262.68 331.82 265.64 322.56 268.34 313.29 270.71 304.02 272.68 294.76 274.18 285.49 275.17 276.23" stroke-dasharray="2 1" transform="rotate(78.33333333333334, 400, 400)" opacity="0.58"></path><path d="M285.56 288.04Q303.08 287.27 320.61 284.89 338.13 281.11 355.66 276.24 373.19 270.67 390.71 264.89 408.24 259.37 425.76 254.56 443.29 250.87 460.81 248.61 478.34 247.96 495.87 248.97 513.39 251.57 530.92 255.54 548.44 260.54 565.97 266.16 559.26 282.61 549.84 299.05 538.63 315.49 526.76 331.94 515.41 348.38 505.72 364.83 498.65 381.27 494.91 397.71 494.87 414.16 498.54 430.6 505.55 447.04 515.2 463.49 526.53 479.93 538.4 496.37 545.71 516.84 524.47 513.39 507.15 507.46 489.83 503.58 472.51 502.06 455.2 503.03 437.88 506.41 420.56 511.93 403.24 519.11 385.92 527.36 368.6 536 351.28 544.3 333.97 551.59 316.65 557.24 299.33 560.79 282.01 561.94 277.11 544.82 271.31 527.71 265.17 510.59 259.31 493.47 254.33 476.35 250.7 459.23 248.8 442.11 248.82 424.99 250.76 407.87 254.41 390.76 259.42 373.64 265.29 356.52 271.42 339.4 277.22 322.28 282.09 305.16 285.56 288.04" stroke-dasharray="3 2" transform="rotate(83.55555555555556, 400, 400)" opacity="0.61"></path><path d="M295.02 299.12Q310.98 297.44 326.93 294.47 342.88 290.42 358.83 285.57 374.78 280.26 390.73 274.86 406.68 269.75 422.63 265.28 438.58 261.78 454.53 259.48 470.48 258.55 486.44 259.05 502.39 260.94 518.34 264.1 534.29 268.3 550.24 273.25 542.6 288.22 533.14 303.18 522.66 318.15 512.04 333.12 502.17 348.08 493.89 363.05 487.88 378.01 484.66 392.98 484.48 407.95 487.38 422.91 493.1 437.88 501.16 452.84 510.89 467.81 521.46 482.77 528.95 501.65 510.2 499.5 494.49 494.94 478.79 492.2 463.08 491.48 447.37 492.83 431.66 496.14 415.96 501.2 400.25 507.64 384.54 515.02 368.83 522.82 353.13 530.48 337.42 537.49 321.71 543.34 306 547.62 290.3 550.04 285.03 534.36 279.25 518.68 273.45 502.99 268.12 487.31 263.7 471.63 260.57 455.95 258.98 440.26 259.08 424.58 260.85 408.9 264.14 393.21 268.68 377.53 274.09 361.85 279.91 346.17 285.65 330.48 290.83 314.8 295.02 299.12" stroke-dasharray="1 6" transform="rotate(88.77777777777779, 400, 400)" opacity="0.65"></path><path d="M303.58 309.42Q317.95 307.03 332.31 303.65 346.67 299.48 361.04 294.77 375.4 289.77 389.76 284.79 404.13 280.11 418.49 276.01 432.85 272.71 447.22 270.41 461.58 269.25 475.95 269.29 490.31 270.53 504.67 272.9 519.04 276.25 533.4 280.4 525.42 293.92 516.36 307.43 506.86 320.94 497.58 334.46 489.16 347.97 482.19 361.48 477.16 374.99 474.4 388.51 474.12 402.02 476.34 415.53 480.89 429.05 487.47 442.56 495.61 456.07 504.75 469.59 511.81 486.96 495.26 486.14 481.16 482.84 467.06 481.11 452.95 481.05 438.85 482.68 424.75 485.88 410.64 490.48 396.54 496.21 382.44 502.74 368.33 509.68 354.23 516.65 340.13 523.23 326.02 529.05 311.92 533.76 297.82 537.09 292.47 522.86 286.95 508.63 281.64 494.4 276.91 480.17 273.1 465.94 270.45 451.71 269.17 437.48 269.33 423.25 270.93 409.02 273.85 394.8 277.9 380.57 282.79 366.34 288.18 352.11 293.69 337.88 298.95 323.65 303.58 309.42" stroke-dasharray="3 4" transform="rotate(94, 400, 400)" opacity="0.68"></path><path d="M311.29 318.94Q324.07 316.05 336.85 312.45 349.63 308.32 362.41 303.84 375.19 299.23 387.97 294.7 400.75 290.47 413.53 286.73 426.31 283.66 439.08 281.41 451.86 280.07 464.64 279.72 477.42 280.36 490.2 281.98 505.47 292.17 499.66 311.94 491.32 324.03 483.41 336.12 476.38 348.2 470.63 360.29 466.47 372.38 464.15 384.46 463.79 396.55 465.42 408.64 468.94 420.72 474.15 432.81 480.77 444.9 488.41 456.98 494.57 472.9 479.98 473.35 467.46 471.17 454.94 470.3 442.42 470.77 429.9 472.57 417.38 475.62 404.86 479.75 392.34 484.8 379.82 490.51 367.3 496.61 354.77 502.83 342.25 508.87 329.73 514.45 317.21 519.3 304.69 523.19 299.55 510.43 294.49 497.66 289.79 484.9 285.73 472.13 282.53 459.36 280.36 446.6 279.36 433.83 279.58 421.07 281.01 408.3 283.56 395.53 287.1 382.77 291.42 370 296.28 357.23 301.4 344.47 306.5 331.7 311.29 318.94" stroke-dasharray="4 2" transform="rotate(99.22222222222223, 400, 400)" opacity="0.72"></path><path d="M318.27 327.7Q329.48 324.54 340.69 320.91 351.9 316.95 363.11 312.81 374.32 308.64 385.54 304.59 396.75 300.81 407.96 297.45 419.17 294.63 430.38 292.46 441.59 291.01 452.8 290.34 464.01 290.47 475.23 291.41 488.45 299.65 483.18 316.88 476.1 327.56 469.56 338.25 463.83 348.93 459.19 359.62 455.82 370.31 453.9 380.99 453.49 391.68 454.62 402.37 457.24 413.05 461.23 423.74 466.41 434.43 472.56 445.11 465.61 459.75 442.73 459.75 431.76 460.63 420.79 462.52 409.82 465.35 398.85 469.03 387.88 473.41 376.91 478.33 365.94 483.61 354.97 489.06 344 494.46 333.03 499.63 314.23 500.77 301.96 485.89 297.97 474.59 294.6 463.29 292.01 451.99 290.31 440.69 289.57 429.39 289.84 418.09 291.09 406.79 293.28 395.5 296.29 384.2 300.01 372.9 304.27 361.6 308.86 350.3 313.6 339 318.27 327.7" stroke-dasharray="6 1" transform="rotate(104.44444444444444, 400, 400)" opacity="0.75"></path><path d="M324.66 335.78Q334.33 332.57 344 329.08 353.67 325.42 363.35 321.69 373.02 318 382.69 314.45 392.36 311.15 402.04 308.18 411.71 305.63 421.38 303.58 431.05 302.07 440.72 301.17 450.4 300.88 460.07 301.23 471.46 307.62 467.06 322.37 461.28 331.68 456.04 340.99 451.52 350.3 447.87 359.61 445.21 368.92 443.64 378.23 443.21 387.54 443.93 396.85 445.79 406.16 448.7 415.47 452.59 424.78 457.31 434.1 450.55 448.09 430.74 449.47 421.28 450.61 411.82 452.5 402.36 455.09 392.9 458.31 383.44 462.05 373.98 466.22 364.52 470.7 355.06 475.35 345.6 480.05 336.14 484.67 319.93 486.18 309.48 473.45 306.24 463.62 303.57 453.78 301.56 443.95 300.29 434.12 299.8 424.28 300.09 414.45 301.17 404.62 302.99 394.78 305.5 384.95 308.61 375.12 312.2 365.28 316.17 355.45 320.37 345.61 324.66 335.78" stroke-dasharray="6 3" transform="rotate(109.66666666666667, 400, 400)" opacity="0.79"></path><path d="M330.65 343.25Q347 337.01 363.34 330.51 379.68 324.3 396.02 318.9 412.36 314.76 428.7 312.21 445.05 311.48 461.39 312.62 451.41 328.54 442.89 344.45 436.68 360.36 433.39 376.28 433.36 392.19 436.58 408.1 442.75 424.01 451.23 439.93 435.24 438.53 419.25 439.43 403.25 442.53 387.26 447.58 371.27 454.17 355.27 461.74 339.28 469.67 323.29 477.29 317.13 460.53 312.66 443.78 310.32 427.02 310.34 410.27 312.73 393.52 317.24 376.76 323.42 360.01 330.65 343.25" stroke-dasharray="3 1" transform="rotate(114.88888888888889, 400, 400)" opacity="0.82"></path><path d="M336.49 350.24Q349.91 344.75 363.33 339.28 376.76 334.14 390.18 329.62 403.61 326 417.03 323.48 433.4 328.84 430.11 348.72 425.6 361.96 423.13 375.2 422.88 388.44 424.87 401.68 425.3 421.51 408.51 429.61 395.35 432.59 382.19 436.86 369.03 442.18 355.87 448.25 342.71 454.71 329.55 461.18 325.04 447.31 321.92 433.44 320.41 419.58 320.6 405.71 322.49 391.84 325.94 377.97 330.72 364.1 336.49 350.24" stroke-dasharray="1 3" transform="rotate(120.11111111111111, 400, 400)" opacity="0.86"></path><path d="M342.4 356.87Q353 352.38 363.59 348.02 374.19 343.96 384.78 340.35 395.38 337.31 405.98 334.97 419.26 338.35 417.71 353.87 414.64 364.46 412.88 375.05 412.51 385.64 413.54 396.22 412.54 412.52 398.74 420 388.33 422.67 377.91 426.14 367.5 430.26 357.09 434.9 339.99 436.93 331.39 422.97 330.55 411.95 330.85 400.93 332.27 389.92 334.75 378.9 338.18 367.89 342.4 356.87" stroke-dasharray="3 4" transform="rotate(125.33333333333333, 400, 400)" opacity="0.89"></path><path d="M348.65 363.32Q364.36 356.77 380.06 351.07 400.73 353.31 402.63 375.82 402.6 391.72 405.6 407.62 390.11 410.59 374.62 415.41 359.13 421.7 343.64 428.93 341.08 412.53 341.11 396.13 343.72 379.72 348.65 363.32" stroke-dasharray="3 1" transform="rotate(130.55555555555554, 400, 400)" opacity="0.93"></path><path d="M355.49 369.74Q365.86 365.54 376.23 361.8 390.32 362.76 392.37 377.49 387.38 394.73 372.46 404.69 356.62 405.5 351.36 391.46 352.87 380.6 355.49 369.74" stroke-dasharray="1 3" transform="rotate(135.77777777777777, 400, 400)" opacity="0.96"></path></g></svg>